<svg xmlns="http://www.w3.org/2000/svg" viewBox="0 0 1280 720" role="img" aria-labelledby="title description">
	<title id="title">Compositing review frame</title>
	<desc id="description">A rain-soaked futuristic street with a silhouetted character.</desc>
	<defs>
		<linearGradient id="street" x1="0" y1="0" x2="0" y2="1">
			<stop offset="0" stop-color="#111827" /><stop offset="1" stop-color="#020617" />
		</linearGradient>
		<linearGradient id="reflection" x1="0" y1="0" x2="1" y2="0">
			<stop stop-color="#22d3ee" stop-opacity="0" /><stop offset="0.5" stop-color="#22d3ee" stop-opacity="0.75" /><stop offset="1" stop-color="#f472b6" stop-opacity="0" />
		</linearGradient>
	</defs>
	<rect width="1280" height="720" fill="url(#street)" />
	<g fill="#172033">
		<path d="M0 0h235v522H0z" /><path d="M262 0h184v470H262z" /><path d="M862 0h171v490H862z" /><path d="M1058 0h222v530h-222z" />
	</g>
	<g fill="#22d3ee" opacity="0.8">
		<rect x="44" y="94" width="148" height="12" /><rect x="292" y="154" width="116" height="186" rx="8" opacity="0.38" />
		<rect x="904" y="102" width="88" height="16" /><rect x="1090" y="188" width="152" height="210" rx="8" opacity="0.24" />
	</g>
	<g fill="#f472b6" opacity="0.72">
		<rect x="72" y="146" width="92" height="142" rx="6" /><rect x="900" y="162" width="96" height="182" rx="6" />
	</g>
	<path d="M0 504 375 455h536l369 58v207H0Z" fill="#080d15" />
	<path d="M174 720 522 455h230l350 265Z" fill="#111c2a" />
	<path d="M258 695h786" stroke="url(#reflection)" stroke-width="28" opacity="0.72" />
	<g transform="translate(602 310)" fill="#030712">
		<circle cx="38" cy="42" r="34" /><path d="M7 78h63l27 175H-20Z" /><path d="m3 110-74 112M72 110l74 112" stroke="#030712" stroke-width="23" stroke-linecap="round" />
	</g>
	<g stroke="#9bdcf0" stroke-width="2" opacity="0.3">
		<path d="m92 0 104 720M296 0l80 720M508 0l54 720M756 0l-18 720M1004 0l-70 720M1190 0l-96 720" />
	</g>
	<g transform="translate(36 38)">
		<rect width="238" height="58" rx="10" fill="#020617" fill-opacity="0.76" />
		<text x="18" y="26" fill="#f9a8d4" font-family="system-ui,sans-serif" font-size="13" font-weight="700" letter-spacing="2">SHOT 020</text>
		<text x="18" y="46" fill="#dbeafe" font-family="system-ui,sans-serif" font-size="14">Compositing · v008 · 120f</text>
	</g>
</svg>
